<?xml version="1.0" standalone="no"?><svg xmlns="http://www.w3.org/2000/svg" viewBox="0 0 1440 320"><path fill="#FFCE00" fill-opacity="1" d="M0,64L24,80C48,96,96,128,144,170.7C192,213,240,267,288,272C336,277,384,235,432,192C480,149,528,107,576,101.3C624,96,672,128,720,122.7C768,117,816,75,864,74.7C912,75,960,117,1008,154.7C1056,192,1104,224,1152,208C1200,192,1248,128,1296,117.3C1344,107,1392,149,1416,170.7L1440,192L1440,0L1416,0C1392,0,1344,0,1296,0C1248,0,1200,0,1152,0C1104,0,1056,0,1008,0C960,0,912,0,864,0C816,0,768,0,720,0C672,0,624,0,576,0C528,0,480,0,432,0C384,0,336,0,288,0C240,0,192,0,144,0C96,0,48,0,24,0L0,0Z"></path></svg>